<?xml version="1.0" standalone="no"?>
<!DOCTYPE svg PUBLIC "-//W3C//DTD SVG 20010904//EN"
 "http://www.w3.org/TR/2001/REC-SVG-20010904/DTD/svg10.dtd">
<svg version="1.0" xmlns="http://www.w3.org/2000/svg"
 width="150.000000pt" height="150.000000pt" viewBox="0 0 150.000000 150.000000"
 preserveAspectRatio="xMidYMid meet">
<metadata>
Created by potrace 1.14, written by Peter Selinger 2001-2017
</metadata>
<g transform="translate(0.000000,150.000000) scale(0.100000,-0.100000)"
fill="#000000" stroke="none">
<path d="M696 1459 c-36 -19 -331 -189 -473 -273 -99 -58 -86 -83 96 -186
l111 -62 159 91 c87 50 161 91 165 91 4 0 78 -41 164 -91 l157 -91 52 29 c182
98 232 138 217 176 -2 7 -64 47 -137 89 -73 42 -199 115 -281 162 -82 47 -159
86 -170 86 -12 0 -39 -9 -60 -21z"/>
<path d="M110 750 c0 -326 2 -352 16 -324 10 22 41 46 102 81 48 28 151 87
230 133 78 45 147 90 152 100 13 25 5 31 -253 179 -172 99 -219 130 -231 155
-14 28 -16 1 -16 -324z"/>
<path d="M1370 1060 c-21 -25 -411 -260 -430 -260 -3 0 -16 -9 -27 -20 -27
-25 -20 -50 20 -74 45 -26 91 -53 133 -76 278 -158 330 -192 318 -212 -2 -4 0
-9 4 -12 5 -3 9 150 9 339 0 190 0 345 -1 344 -1 0 -12 -14 -26 -29z"/>
<path d="M300 490 c-63 -37 -121 -79 -129 -92 -16 -28 -10 -55 16 -65 10 -4
53 -29 96 -55 43 -26 80 -48 81 -48 2 0 81 -45 177 -101 96 -55 186 -103 201
-106 19 -4 44 4 85 27 32 18 74 42 93 53 140 78 416 242 421 250 9 14 -2 50
-20 64 -22 18 -236 143 -244 143 -3 0 -76 -40 -161 -90 -85 -49 -158 -90 -162
-90 -4 0 -77 41 -164 90 -87 50 -161 90 -166 89 -5 -1 -61 -31 -124 -69z"/>
</g>
</svg>
